<svg xmlns="http://www.w3.org/2000/svg" viewBox="0 0 100 100">
<rect x="1.5" y="1.5" width="97" height="97" rx="21" fill="#ffffff" stroke="#e5e7eb" stroke-width="1.5"/>
<line x1="20" y1="20" x2="20" y2="80" stroke="#e5e7eb" stroke-width="2" stroke-linecap="round"/>
<line x1="20" y1="80" x2="80" y2="80" stroke="#e5e7eb" stroke-width="2" stroke-linecap="round"/>
<path d="M 20.00,20.00 L 20.95,23.76 L 21.90,27.29 L 22.86,30.60 L 23.81,33.71 L 24.76,36.62 L 25.71,39.36 L 26.67,41.93 L 27.62,44.34 L 28.57,46.60 L 29.52,48.73 L 30.48,50.72 L 31.43,52.59 L 32.38,54.35 L 33.33,55.99 L 34.29,57.54 L 35.24,58.99 L 36.19,60.35 L 37.14,61.63 L 38.10,62.83 L 39.05,63.95 L 40.00,65.01 L 40.95,66.00 L 41.90,66.93 L 42.86,67.80 L 43.81,68.62 L 44.76,69.39 L 45.71,70.11 L 46.67,70.79 L 47.62,71.42 L 48.57,72.02 L 49.52,72.58 L 50.48,73.11 L 51.43,73.60 L 52.38,74.06 L 53.33,74.50 L 54.29,74.90 L 55.24,75.29 L 56.19,75.64 L 57.14,75.98 L 58.10,76.30 L 59.05,76.59 L 60.00,76.87 L 60.95,77.13 L 61.90,77.38 L 62.86,77.61 L 63.81,77.83 L 64.76,78.03 L 65.71,78.22 L 66.67,78.40 L 67.62,78.56 L 68.57,78.72 L 69.52,78.87 L 70.48,79.01 L 71.43,79.14 L 72.38,79.26 L 73.33,79.37 L 74.29,79.48 L 75.24,79.58 L 76.19,79.68 L 77.14,79.77 L 78.10,79.85 L 79.05,79.93 L 80.00,80.00" fill="none" stroke="#f5b301" stroke-width="7" stroke-linecap="round" stroke-linejoin="round"/>
</svg>